<svg xmlns="http://www.w3.org/2000/svg" xmlns:xlink="http://www.w3.org/1999/xlink" width="2000" zoomAndPan="magnify" viewBox="0 0 1500 607.92" height="800" preserveAspectRatio="xMidYMid meet" version="1.0"><defs><g/></defs><g fill="#fffefa" fill-opacity="1"><g transform="translate(128.747947, 263.306823)"><g><path d="M 29.75 1.6875 C 23.113281 1.6875 17.007812 0.445312 11.4375 -2.03125 C 5.875 -4.507812 1.3125 -8.039062 -2.25 -12.625 L 10.390625 -27.796875 C 15.722656 -20.585938 21.804688 -16.984375 28.640625 -16.984375 C 37.898438 -16.984375 42.53125 -22.410156 42.53125 -33.265625 L 42.53125 -80 L 8 -80 L 8 -98.25 L 65.125 -98.25 L 65.125 -34.53125 C 65.125 -22.457031 62.128906 -13.398438 56.140625 -7.359375 C 50.148438 -1.328125 41.351562 1.6875 29.75 1.6875 Z M 29.75 1.6875 "/></g></g></g><g fill="#fffefa" fill-opacity="1"><g transform="translate(197.658343, 263.306823)"><g><path d="M 46.03125 1.125 C 38.082031 1.125 30.945312 -0.535156 24.625 -3.859375 C 18.3125 -7.179688 13.375 -11.789062 9.8125 -17.6875 C 6.257812 -23.582031 4.484375 -30.269531 4.484375 -37.75 C 4.484375 -45.238281 6.257812 -51.929688 9.8125 -57.828125 C 13.375 -63.722656 18.3125 -68.332031 24.625 -71.65625 C 30.945312 -74.976562 38.082031 -76.640625 46.03125 -76.640625 C 53.988281 -76.640625 61.101562 -74.976562 67.375 -71.65625 C 73.644531 -68.332031 78.554688 -63.722656 82.109375 -57.828125 C 85.660156 -51.929688 87.4375 -45.238281 87.4375 -37.75 C 87.4375 -30.269531 85.660156 -23.582031 82.109375 -17.6875 C 78.554688 -11.789062 73.644531 -7.179688 67.375 -3.859375 C 61.101562 -0.535156 53.988281 1.125 46.03125 1.125 Z M 46.03125 -16.84375 C 51.644531 -16.84375 56.253906 -18.738281 59.859375 -22.53125 C 63.460938 -26.320312 65.265625 -31.394531 65.265625 -37.75 C 65.265625 -44.113281 63.460938 -49.191406 59.859375 -52.984375 C 56.253906 -56.773438 51.644531 -58.671875 46.03125 -58.671875 C 40.414062 -58.671875 35.785156 -56.773438 32.140625 -52.984375 C 28.492188 -49.191406 26.671875 -44.113281 26.671875 -37.75 C 26.671875 -31.394531 28.492188 -26.320312 32.140625 -22.53125 C 35.785156 -18.738281 40.414062 -16.84375 46.03125 -16.84375 Z M 46.03125 -16.84375 "/></g></g></g><g fill="#fffefa" fill-opacity="1"><g transform="translate(282.568484, 263.306823)"><g><path d="M 35.515625 1.125 C 29.242188 1.125 23.113281 0.351562 17.125 -1.1875 C 11.132812 -2.738281 6.363281 -4.679688 2.8125 -7.015625 L 10.109375 -22.734375 C 13.472656 -20.585938 17.539062 -18.832031 22.3125 -17.46875 C 27.082031 -16.113281 31.765625 -15.4375 36.359375 -15.4375 C 45.617188 -15.4375 50.25 -17.726562 50.25 -22.3125 C 50.25 -24.46875 48.984375 -26.015625 46.453125 -26.953125 C 43.929688 -27.890625 40.050781 -28.679688 34.8125 -29.328125 C 28.632812 -30.265625 23.53125 -31.34375 19.5 -32.5625 C 15.476562 -33.78125 11.992188 -35.929688 9.046875 -39.015625 C 6.097656 -42.109375 4.625 -46.507812 4.625 -52.21875 C 4.625 -56.988281 6.003906 -61.21875 8.765625 -64.90625 C 11.523438 -68.601562 15.550781 -71.484375 20.84375 -73.546875 C 26.132812 -75.609375 32.378906 -76.640625 39.578125 -76.640625 C 44.910156 -76.640625 50.21875 -76.050781 55.5 -74.875 C 60.789062 -73.707031 65.171875 -72.097656 68.640625 -70.046875 L 61.34375 -54.453125 C 54.695312 -58.203125 47.441406 -60.078125 39.578125 -60.078125 C 34.898438 -60.078125 31.390625 -59.421875 29.046875 -58.109375 C 26.710938 -56.796875 25.546875 -55.113281 25.546875 -53.0625 C 25.546875 -50.71875 26.804688 -49.078125 29.328125 -48.140625 C 31.859375 -47.203125 35.882812 -46.3125 41.40625 -45.46875 C 47.582031 -44.445312 52.632812 -43.347656 56.5625 -42.171875 C 60.488281 -41.003906 63.898438 -38.875 66.796875 -35.78125 C 69.703125 -32.695312 71.15625 -28.394531 71.15625 -22.875 C 71.15625 -18.195312 69.75 -14.03125 66.9375 -10.375 C 64.132812 -6.726562 60.039062 -3.898438 54.65625 -1.890625 C 49.28125 0.117188 42.898438 1.125 35.515625 1.125 Z M 35.515625 1.125 "/></g></g></g><g fill="#fffefa" fill-opacity="1"><g transform="translate(350.075379, 263.306823)"><g><path d="M 56 -76.640625 C 65.363281 -76.640625 72.921875 -73.832031 78.671875 -68.21875 C 84.421875 -62.601562 87.296875 -54.273438 87.296875 -43.234375 L 87.296875 0 L 65.40625 0 L 65.40625 -39.859375 C 65.40625 -45.847656 64.09375 -50.316406 61.46875 -53.265625 C 58.851562 -56.210938 55.066406 -57.6875 50.109375 -57.6875 C 44.585938 -57.6875 40.1875 -55.976562 36.90625 -52.5625 C 33.632812 -49.144531 32 -44.066406 32 -37.328125 L 32 0 L 10.109375 0 L 10.109375 -104.140625 L 32 -104.140625 L 32 -67.65625 C 34.90625 -70.550781 38.414062 -72.769531 42.53125 -74.3125 C 46.644531 -75.863281 51.132812 -76.640625 56 -76.640625 Z M 56 -76.640625 "/></g></g></g><g fill="#fffefa" fill-opacity="1"><g transform="translate(440.038084, 263.306823)"><g><path d="M 101.0625 0 L 100.921875 -58.953125 L 72 -10.390625 L 61.765625 -10.390625 L 32.984375 -57.6875 L 32.984375 0 L 11.65625 0 L 11.65625 -98.25 L 30.453125 -98.25 L 67.234375 -37.1875 L 103.4375 -98.25 L 122.109375 -98.25 L 122.390625 0 Z M 101.0625 0 "/></g></g></g><g fill="#fffefa" fill-opacity="1"><g transform="translate(567.052847, 263.306823)"><g><path d="M 40.5625 -76.640625 C 52.257812 -76.640625 61.242188 -73.851562 67.515625 -68.28125 C 73.785156 -62.71875 76.921875 -54.320312 76.921875 -43.09375 L 76.921875 0 L 56.421875 0 L 56.421875 -9.40625 C 52.304688 -2.382812 44.632812 1.125 33.40625 1.125 C 27.601562 1.125 22.570312 0.144531 18.3125 -1.8125 C 14.0625 -3.78125 10.8125 -6.492188 8.5625 -9.953125 C 6.3125 -13.421875 5.1875 -17.351562 5.1875 -21.75 C 5.1875 -28.769531 7.828125 -34.289062 13.109375 -38.3125 C 18.398438 -42.34375 26.566406 -44.359375 37.609375 -44.359375 L 55.015625 -44.359375 C 55.015625 -49.128906 53.5625 -52.800781 50.65625 -55.375 C 47.757812 -57.945312 43.410156 -59.234375 37.609375 -59.234375 C 33.585938 -59.234375 29.632812 -58.597656 25.75 -57.328125 C 21.875 -56.066406 18.578125 -54.363281 15.859375 -52.21875 L 8 -67.515625 C 12.113281 -70.410156 17.046875 -72.65625 22.796875 -74.25 C 28.554688 -75.84375 34.476562 -76.640625 40.5625 -76.640625 Z M 38.875 -13.609375 C 42.625 -13.609375 45.945312 -14.472656 48.84375 -16.203125 C 51.75 -17.941406 53.804688 -20.492188 55.015625 -23.859375 L 55.015625 -31.578125 L 40 -31.578125 C 31.019531 -31.578125 26.53125 -28.628906 26.53125 -22.734375 C 26.53125 -19.929688 27.628906 -17.707031 29.828125 -16.0625 C 32.023438 -14.425781 35.039062 -13.609375 38.875 -13.609375 Z M 38.875 -13.609375 "/></g></g></g><g fill="#fffefa" fill-opacity="1"><g transform="translate(647.471887, 263.306823)"><g><path d="M 87.015625 -104.140625 L 87.015625 0 L 66.109375 0 L 66.109375 -8.703125 C 60.679688 -2.148438 52.820312 1.125 42.53125 1.125 C 35.414062 1.125 28.976562 -0.460938 23.21875 -3.640625 C 17.46875 -6.828125 12.953125 -11.367188 9.671875 -17.265625 C 6.398438 -23.160156 4.765625 -29.988281 4.765625 -37.75 C 4.765625 -45.519531 6.398438 -52.351562 9.671875 -58.25 C 12.953125 -64.144531 17.46875 -68.679688 23.21875 -71.859375 C 28.976562 -75.046875 35.414062 -76.640625 42.53125 -76.640625 C 52.164062 -76.640625 59.695312 -73.597656 65.125 -67.515625 L 65.125 -104.140625 Z M 46.3125 -16.84375 C 51.832031 -16.84375 56.414062 -18.738281 60.0625 -22.53125 C 63.71875 -26.320312 65.546875 -31.394531 65.546875 -37.75 C 65.546875 -44.113281 63.71875 -49.191406 60.0625 -52.984375 C 56.414062 -56.773438 51.832031 -58.671875 46.3125 -58.671875 C 40.695312 -58.671875 36.066406 -56.773438 32.421875 -52.984375 C 28.773438 -49.191406 26.953125 -44.113281 26.953125 -37.75 C 26.953125 -31.394531 28.773438 -26.320312 32.421875 -22.53125 C 36.066406 -18.738281 40.695312 -16.84375 46.3125 -16.84375 Z M 46.3125 -16.84375 "/></g></g></g><g fill="#fffefa" fill-opacity="1"><g transform="translate(737.574925, 263.306823)"><g><path d="M 40.5625 -76.640625 C 52.257812 -76.640625 61.242188 -73.851562 67.515625 -68.28125 C 73.785156 -62.71875 76.921875 -54.320312 76.921875 -43.09375 L 76.921875 0 L 56.421875 0 L 56.421875 -9.40625 C 52.304688 -2.382812 44.632812 1.125 33.40625 1.125 C 27.601562 1.125 22.570312 0.144531 18.3125 -1.8125 C 14.0625 -3.78125 10.8125 -6.492188 8.5625 -9.953125 C 6.3125 -13.421875 5.1875 -17.351562 5.1875 -21.75 C 5.1875 -28.769531 7.828125 -34.289062 13.109375 -38.3125 C 18.398438 -42.34375 26.566406 -44.359375 37.609375 -44.359375 L 55.015625 -44.359375 C 55.015625 -49.128906 53.5625 -52.800781 50.65625 -55.375 C 47.757812 -57.945312 43.410156 -59.234375 37.609375 -59.234375 C 33.585938 -59.234375 29.632812 -58.597656 25.75 -57.328125 C 21.875 -56.066406 18.578125 -54.363281 15.859375 -52.21875 L 8 -67.515625 C 12.113281 -70.410156 17.046875 -72.65625 22.796875 -74.25 C 28.554688 -75.84375 34.476562 -76.640625 40.5625 -76.640625 Z M 38.875 -13.609375 C 42.625 -13.609375 45.945312 -14.472656 48.84375 -16.203125 C 51.75 -17.941406 53.804688 -20.492188 55.015625 -23.859375 L 55.015625 -31.578125 L 40 -31.578125 C 31.019531 -31.578125 26.53125 -28.628906 26.53125 -22.734375 C 26.53125 -19.929688 27.628906 -17.707031 29.828125 -16.0625 C 32.023438 -14.425781 35.039062 -13.609375 38.875 -13.609375 Z M 38.875 -13.609375 "/></g></g></g><g fill="#fffefa" fill-opacity="1"><g transform="translate(817.151791, 263.306823)"><g><path d="M 42.53125 -29.609375 L 32 -19.234375 L 32 0 L 10.109375 0 L 10.109375 -104.140625 L 32 -104.140625 L 32 -45.203125 L 64 -75.515625 L 90.109375 -75.515625 L 58.671875 -43.515625 L 92.921875 0 L 66.390625 0 Z M 42.53125 -29.609375 "/></g></g></g><g fill="#fffefa" fill-opacity="1"><g transform="translate(899.535431, 263.306823)"><g><path d="M 46.03125 1.125 C 38.082031 1.125 30.945312 -0.535156 24.625 -3.859375 C 18.3125 -7.179688 13.375 -11.789062 9.8125 -17.6875 C 6.257812 -23.582031 4.484375 -30.269531 4.484375 -37.75 C 4.484375 -45.238281 6.257812 -51.929688 9.8125 -57.828125 C 13.375 -63.722656 18.3125 -68.332031 24.625 -71.65625 C 30.945312 -74.976562 38.082031 -76.640625 46.03125 -76.640625 C 53.988281 -76.640625 61.101562 -74.976562 67.375 -71.65625 C 73.644531 -68.332031 78.554688 -63.722656 82.109375 -57.828125 C 85.660156 -51.929688 87.4375 -45.238281 87.4375 -37.75 C 87.4375 -30.269531 85.660156 -23.582031 82.109375 -17.6875 C 78.554688 -11.789062 73.644531 -7.179688 67.375 -3.859375 C 61.101562 -0.535156 53.988281 1.125 46.03125 1.125 Z M 46.03125 -16.84375 C 51.644531 -16.84375 56.253906 -18.738281 59.859375 -22.53125 C 63.460938 -26.320312 65.265625 -31.394531 65.265625 -37.75 C 65.265625 -44.113281 63.460938 -49.191406 59.859375 -52.984375 C 56.253906 -56.773438 51.644531 -58.671875 46.03125 -58.671875 C 40.414062 -58.671875 35.785156 -56.773438 32.140625 -52.984375 C 28.492188 -49.191406 26.671875 -44.113281 26.671875 -37.75 C 26.671875 -31.394531 28.492188 -26.320312 32.140625 -22.53125 C 35.785156 -18.738281 40.414062 -16.84375 46.03125 -16.84375 Z M 46.03125 -16.84375 "/></g></g></g><g fill="#fffefa" fill-opacity="1"><g transform="translate(984.44555, 263.306823)"><g><path d="M 31.015625 -65.546875 C 33.640625 -69.191406 37.171875 -71.953125 41.609375 -73.828125 C 46.054688 -75.703125 51.179688 -76.640625 56.984375 -76.640625 L 56.984375 -56.421875 C 54.554688 -56.609375 52.921875 -56.703125 52.078125 -56.703125 C 45.804688 -56.703125 40.890625 -54.945312 37.328125 -51.4375 C 33.773438 -47.925781 32 -42.664062 32 -35.65625 L 32 0 L 10.109375 0 L 10.109375 -75.515625 L 31.015625 -75.515625 Z M 31.015625 -65.546875 "/></g></g></g><g fill="#e03131" fill-opacity="1"><g transform="translate(1036.515165, 263.306823)"><g><path d="M 18.390625 1.125 C 14.546875 1.125 11.3125 -0.179688 8.6875 -2.796875 C 6.070312 -5.421875 4.765625 -8.695312 4.765625 -12.625 C 4.765625 -16.65625 6.070312 -19.910156 8.6875 -22.390625 C 11.3125 -24.867188 14.546875 -26.109375 18.390625 -26.109375 C 22.222656 -26.109375 25.445312 -24.867188 28.0625 -22.390625 C 30.6875 -19.910156 32 -16.65625 32 -12.625 C 32 -8.695312 30.6875 -5.421875 28.0625 -2.796875 C 25.445312 -0.179688 22.222656 1.125 18.390625 1.125 Z M 18.390625 1.125 "/></g></g></g><g fill="#e03131" fill-opacity="1"><g transform="translate(1065.706848, 263.306823)"><g><path d="M 58.8125 -3.65625 C 56.65625 -2.0625 54.007812 -0.863281 50.875 -0.0625 C 47.738281 0.726562 44.441406 1.125 40.984375 1.125 C 32.003906 1.125 25.054688 -1.164062 20.140625 -5.75 C 15.222656 -10.332031 12.765625 -17.070312 12.765625 -25.96875 L 12.765625 -56.984375 L 1.125 -56.984375 L 1.125 -73.828125 L 12.765625 -73.828125 L 12.765625 -92.21875 L 34.671875 -92.21875 L 34.671875 -73.828125 L 53.484375 -73.828125 L 53.484375 -56.984375 L 34.671875 -56.984375 L 34.671875 -26.25 C 34.671875 -23.0625 35.488281 -20.601562 37.125 -18.875 C 38.757812 -17.144531 41.078125 -16.28125 44.078125 -16.28125 C 47.535156 -16.28125 50.484375 -17.21875 52.921875 -19.09375 Z M 58.8125 -3.65625 "/></g></g></g><g fill="#e03131" fill-opacity="1"><g transform="translate(1117.354182, 263.306823)"><g><path d="M 84.078125 -37.46875 C 84.078125 -37.195312 83.9375 -35.234375 83.65625 -31.578125 L 26.53125 -31.578125 C 27.5625 -26.898438 29.992188 -23.203125 33.828125 -20.484375 C 37.660156 -17.773438 42.429688 -16.421875 48.140625 -16.421875 C 52.066406 -16.421875 55.550781 -17.003906 58.59375 -18.171875 C 61.632812 -19.347656 64.46875 -21.195312 67.09375 -23.71875 L 78.734375 -11.09375 C 71.628906 -2.945312 61.242188 1.125 47.578125 1.125 C 39.066406 1.125 31.535156 -0.535156 24.984375 -3.859375 C 18.429688 -7.179688 13.375 -11.789062 9.8125 -17.6875 C 6.257812 -23.582031 4.484375 -30.269531 4.484375 -37.75 C 4.484375 -45.144531 6.238281 -51.8125 9.75 -57.75 C 13.257812 -63.695312 18.078125 -68.332031 24.203125 -71.65625 C 30.335938 -74.976562 37.195312 -76.640625 44.78125 -76.640625 C 52.164062 -76.640625 58.851562 -75.046875 64.84375 -71.859375 C 70.832031 -68.679688 75.535156 -64.117188 78.953125 -58.171875 C 82.367188 -52.234375 84.078125 -45.332031 84.078125 -37.46875 Z M 44.921875 -60.078125 C 39.953125 -60.078125 35.785156 -58.671875 32.421875 -55.859375 C 29.054688 -53.054688 27 -49.222656 26.25 -44.359375 L 63.4375 -44.359375 C 62.6875 -49.128906 60.628906 -52.941406 57.265625 -55.796875 C 53.898438 -58.648438 49.785156 -60.078125 44.921875 -60.078125 Z M 44.921875 -60.078125 "/></g></g></g><g fill="#e03131" fill-opacity="1"><g transform="translate(1198.895957, 263.306823)"><g><path d="M 46.59375 1.125 C 38.550781 1.125 31.320312 -0.535156 24.90625 -3.859375 C 18.5 -7.179688 13.492188 -11.789062 9.890625 -17.6875 C 6.285156 -23.582031 4.484375 -30.269531 4.484375 -37.75 C 4.484375 -45.238281 6.285156 -51.929688 9.890625 -57.828125 C 13.492188 -63.722656 18.5 -68.332031 24.90625 -71.65625 C 31.320312 -74.976562 38.550781 -76.640625 46.59375 -76.640625 C 54.550781 -76.640625 61.5 -74.976562 67.4375 -71.65625 C 73.382812 -68.332031 77.710938 -63.582031 80.421875 -57.40625 L 63.4375 -48.28125 C 59.507812 -55.207031 53.847656 -58.671875 46.453125 -58.671875 C 40.742188 -58.671875 36.019531 -56.796875 32.28125 -53.046875 C 28.539062 -49.304688 26.671875 -44.207031 26.671875 -37.75 C 26.671875 -31.300781 28.539062 -26.203125 32.28125 -22.453125 C 36.019531 -18.710938 40.742188 -16.84375 46.453125 -16.84375 C 53.941406 -16.84375 59.601562 -20.304688 63.4375 -27.234375 L 80.421875 -17.96875 C 77.710938 -11.976562 73.382812 -7.296875 67.4375 -3.921875 C 61.5 -0.554688 54.550781 1.125 46.59375 1.125 Z M 46.59375 1.125 "/></g></g></g><g fill="#e03131" fill-opacity="1"><g transform="translate(1274.262341, 263.306823)"><g><path d="M 56 -76.640625 C 65.363281 -76.640625 72.921875 -73.832031 78.671875 -68.21875 C 84.421875 -62.601562 87.296875 -54.273438 87.296875 -43.234375 L 87.296875 0 L 65.40625 0 L 65.40625 -39.859375 C 65.40625 -45.847656 64.09375 -50.316406 61.46875 -53.265625 C 58.851562 -56.210938 55.066406 -57.6875 50.109375 -57.6875 C 44.585938 -57.6875 40.1875 -55.976562 36.90625 -52.5625 C 33.632812 -49.144531 32 -44.066406 32 -37.328125 L 32 0 L 10.109375 0 L 10.109375 -104.140625 L 32 -104.140625 L 32 -67.65625 C 34.90625 -70.550781 38.414062 -72.769531 42.53125 -74.3125 C 46.644531 -75.863281 51.132812 -76.640625 56 -76.640625 Z M 56 -76.640625 "/></g></g></g><g fill="#fffefa" fill-opacity="1"><g transform="translate(326.081447, 408.816322)"><g><path d="M 31.5 -45 C 35.832031 -45 39.707031 -44.054688 43.125 -42.171875 C 46.539062 -40.285156 49.222656 -37.617188 51.171875 -34.171875 C 53.117188 -30.722656 54.09375 -26.75 54.09375 -22.25 C 54.09375 -17.75 53.117188 -13.757812 51.171875 -10.28125 C 49.222656 -6.8125 46.539062 -4.132812 43.125 -2.25 C 39.707031 -0.363281 35.832031 0.578125 31.5 0.578125 C 28.445312 0.578125 25.65625 0.0507812 23.125 -1 C 20.59375 -2.050781 18.46875 -3.632812 16.75 -5.75 L 16.75 0 L 6.828125 0 L 6.828125 -61.84375 L 17.25 -61.84375 L 17.25 -39.09375 C 19.03125 -41.03125 21.128906 -42.5 23.546875 -43.5 C 25.960938 -44.5 28.613281 -45 31.5 -45 Z M 30.34375 -8.328125 C 34.175781 -8.328125 37.328125 -9.601562 39.796875 -12.15625 C 42.265625 -14.71875 43.5 -18.082031 43.5 -22.25 C 43.5 -26.414062 42.265625 -29.773438 39.796875 -32.328125 C 37.328125 -34.890625 34.175781 -36.171875 30.34375 -36.171875 C 27.84375 -36.171875 25.585938 -35.597656 23.578125 -34.453125 C 21.578125 -33.316406 19.992188 -31.691406 18.828125 -29.578125 C 17.660156 -27.472656 17.078125 -25.03125 17.078125 -22.25 C 17.078125 -19.46875 17.660156 -17.019531 18.828125 -14.90625 C 19.992188 -12.800781 21.578125 -11.175781 23.578125 -10.03125 C 25.585938 -8.894531 27.84375 -8.328125 30.34375 -8.328125 Z M 30.34375 -8.328125 "/></g></g></g><g fill="#fffefa" fill-opacity="1"><g transform="translate(377.837829, 408.816322)"><g><path d="M 48.5 -44.5 L 27.671875 3.578125 C 25.722656 8.410156 23.359375 11.8125 20.578125 13.78125 C 17.804688 15.757812 14.445312 16.75 10.5 16.75 C 8.28125 16.75 6.085938 16.382812 3.921875 15.65625 C 1.753906 14.9375 -0.0234375 13.941406 -1.421875 12.671875 L 2.75 5 C 3.75 5.945312 4.925781 6.695312 6.28125 7.25 C 7.644531 7.800781 9.023438 8.078125 10.421875 8.078125 C 12.253906 8.078125 13.765625 7.601562 14.953125 6.65625 C 16.148438 5.71875 17.25 4.140625 18.25 1.921875 L 19 0.171875 L -0.421875 -44.5 L 10.421875 -44.5 L 24.421875 -11.578125 L 38.5 -44.5 Z M 48.5 -44.5 "/></g></g></g><path stroke-linecap="butt" transform="matrix(0.749901, 0.000000000000000674, -0.000000000000000674, 0.749901, 352.21949, 296.270727)" fill="none" stroke-linejoin="miter" d="M -0.000987003 1.498603 L 1075.150942 1.498603 " stroke="#fffefa" stroke-width="3" stroke-opacity="1" stroke-miterlimit="4"/><path fill="#fffefa" d="M 470.390625 337.421875 C 466.300781 337.855469 462.472656 340.433594 460.5 344.089844 C 459.933594 345.15625 459.484375 346.304688 459.207031 347.480469 C 459 348.316406 458.988281 350.117188 458.988281 378.808594 L 458.988281 409.25 L 459.316406 410.414062 C 459.691406 411.792969 460.257812 413.078125 461.046875 414.300781 C 461.832031 415.523438 463.832031 417.445312 465.078125 418.199219 C 465.621094 418.523438 466.09375 418.765625 466.128906 418.742188 C 466.15625 418.707031 466.203125 417.242188 466.25 415.484375 C 466.566406 401.832031 467.789062 393.066406 470.488281 385.054688 C 472.316406 379.644531 475.4375 373.90625 478.804688 369.753906 C 479.976562 368.324219 483.609375 364.558594 484.773438 363.589844 C 486.296875 362.308594 488.441406 360.589844 488.863281 360.3125 C 489.105469 360.152344 489.3125 359.972656 489.3125 359.910156 C 489.3125 359.863281 489.527344 359.695312 489.796875 359.535156 C 490.0625 359.378906 491.140625 358.675781 492.179688 357.976562 C 493.949219 356.777344 494.625 356.363281 495.910156 355.675781 C 496.175781 355.53125 496.476562 355.347656 496.574219 355.261719 C 496.851562 355.019531 502.25 352.308594 504.199219 351.425781 C 507.203125 350.058594 512.867188 347.769531 515.398438 346.898438 C 515.664062 346.800781 516.207031 346.609375 516.609375 346.476562 C 517.007812 346.328125 517.746094 346.074219 518.242188 345.917969 C 518.738281 345.75 519.257812 345.566406 519.390625 345.519531 C 520.601562 345.082031 522.890625 344.34375 524.355469 343.933594 C 525.082031 343.726562 525.929688 343.484375 526.230469 343.402344 C 526.910156 343.183594 531.691406 341.960938 534.765625 341.210938 C 536.035156 340.894531 537.113281 340.605469 537.164062 340.554688 C 537.210938 340.507812 536.96875 340.253906 536.617188 339.988281 C 535.203125 338.898438 533.496094 338.085938 531.582031 337.613281 L 530.527344 337.359375 L 500.933594 337.335938 C 484.652344 337.324219 470.910156 337.359375 470.390625 337.421875 Z M 470.390625 337.421875 " fill-opacity="1" fill-rule="nonzero"/><path fill="#fffefa" d="M 538.035156 344.1875 C 527.34375 346.824219 516.921875 350.105469 509.332031 353.207031 C 497.578125 358.023438 488.765625 363.652344 482.726562 370.1875 C 474.738281 378.84375 470.574219 389.265625 468.503906 405.800781 C 467.996094 409.832031 467.21875 419.007812 467.363281 419.261719 C 467.4375 419.40625 468.949219 419.820312 469.882812 419.964844 C 470.476562 420.050781 479.976562 420.085938 500.871094 420.0625 L 531.011719 420.023438 L 532.164062 419.6875 C 536.4375 418.4375 539.621094 415.414062 541.058594 411.226562 C 541.773438 409.179688 541.738281 410.789062 541.703125 378.140625 L 541.664062 348.242188 L 541.328125 347.03125 C 541 345.871094 540.175781 343.921875 539.957031 343.800781 C 539.898438 343.761719 539.039062 343.945312 538.035156 344.1875 Z M 538.035156 344.1875 " fill-opacity="1" fill-rule="nonzero"/><path fill="#747474" d="M 949.847656 355.453125 C 949.484375 355.636719 948.953125 356.035156 948.667969 356.332031 C 948.238281 356.78125 922.199219 400.136719 922.199219 400.402344 C 922.199219 400.449219 924.160156 400.46875 926.554688 400.449219 L 930.90625 400.402344 L 940.960938 383.253906 C 946.492188 373.832031 951.097656 366.121094 951.179688 366.136719 C 951.328125 366.1875 961.066406 382.519531 961.082031 382.738281 C 961.082031 382.820312 958.023438 382.871094 954.285156 382.871094 L 947.488281 382.871094 L 945.730469 385.929688 C 944.765625 387.605469 943.96875 389.019531 943.96875 389.070312 C 943.96875 389.136719 948.6875 389.203125 954.46875 389.21875 L 964.96875 389.269531 L 968.292969 394.882812 L 971.601562 400.484375 L 980.839844 400.484375 L 979.625 398.441406 C 969.855469 381.988281 954.503906 356.582031 954.070312 356.167969 C 952.957031 355.105469 951.179688 354.804688 949.847656 355.453125 Z M 949.847656 355.453125 " fill-opacity="1" fill-rule="nonzero"/><path fill="#747474" d="M 875.007812 378.035156 L 875.007812 400.484375 L 882.484375 400.484375 L 882.484375 363.429688 L 895.082031 363.429688 C 908.722656 363.429688 908.988281 363.445312 910.785156 364.34375 C 912.613281 365.273438 913.859375 366.667969 914.574219 368.664062 C 915.085938 370.042969 915.121094 373.515625 914.65625 374.894531 C 913.792969 377.46875 912.128906 379.164062 909.570312 380.078125 C 908.492188 380.460938 908.472656 380.460938 898.488281 380.511719 L 888.46875 380.5625 L 888.46875 388.023438 L 897.824219 388.023438 C 902.957031 388.023438 907.792969 387.9375 908.574219 387.855469 C 911.53125 387.523438 913.691406 386.757812 916 385.246094 C 920.472656 382.320312 922.78125 377.121094 922.480469 370.671875 C 922.117188 362.648438 917.8125 357.546875 910.101562 356 C 909.003906 355.769531 906.414062 355.71875 891.921875 355.667969 L 875.007812 355.601562 Z M 875.007812 378.035156 " fill-opacity="1" fill-rule="nonzero"/><path fill="#747474" d="M 1002.308594 355.800781 C 994.167969 356.484375 987.503906 361.234375 984.578125 368.496094 C 983.25 371.789062 982.652344 376.023438 983 379.730469 C 983.332031 383.320312 983.945312 385.578125 985.425781 388.621094 C 988.285156 394.519531 993.601562 398.605469 1000.296875 400.101562 C 1001.394531 400.335938 1003.222656 400.382812 1015.136719 400.433594 L 1028.710938 400.5 L 1028.679688 396.628906 L 1028.628906 392.757812 L 1015.167969 392.675781 C 1000.132812 392.574219 1001.078125 392.640625 998.371094 391.34375 C 993.949219 389.21875 991.242188 385.097656 990.660156 379.628906 C 990.328125 376.574219 990.808594 373.746094 992.15625 370.988281 C 994.082031 367.019531 997.339844 364.527344 1001.761719 363.660156 C 1002.757812 363.480469 1005.347656 363.429688 1015.851562 363.429688 L 1028.710938 363.429688 L 1028.679688 359.558594 L 1028.628906 355.703125 L 1016.332031 355.6875 C 1009.570312 355.667969 1003.253906 355.734375 1002.308594 355.800781 Z M 1002.308594 355.800781 " fill-opacity="1" fill-rule="nonzero"/><path fill="#747474" d="M 1035.523438 378.050781 L 1035.523438 400.484375 L 1043.167969 400.484375 L 1043.167969 355.617188 L 1035.523438 355.617188 Z M 1035.523438 378.050781 " fill-opacity="1" fill-rule="nonzero"/><path fill="#747474" d="M 1053.804688 378.050781 L 1053.804688 400.484375 L 1061.445312 400.484375 L 1061.445312 363.429688 L 1091.6875 363.429688 L 1091.6875 355.617188 L 1053.804688 355.617188 Z M 1053.804688 378.050781 " fill-opacity="1" fill-rule="nonzero"/><path fill="#747474" d="M 1097.621094 355.734375 C 1097.554688 355.785156 1097.503906 365.886719 1097.503906 378.167969 L 1097.503906 400.484375 L 1105.316406 400.484375 L 1105.316406 355.617188 L 1101.527344 355.617188 C 1099.433594 355.617188 1097.671875 355.667969 1097.621094 355.734375 Z M 1097.621094 355.734375 " fill-opacity="1" fill-rule="nonzero"/><path fill="#747474" d="M 1133.894531 355.800781 C 1129.707031 356.101562 1125.472656 357.628906 1122.429688 359.921875 C 1116.679688 364.261719 1113.691406 371.488281 1114.304688 379.5625 C 1114.753906 385.628906 1116.996094 390.597656 1121.019531 394.484375 C 1123.925781 397.292969 1127.265625 399.089844 1131.320312 400.035156 C 1132.765625 400.367188 1133.347656 400.382812 1146.40625 400.433594 L 1159.984375 400.5 L 1159.984375 392.675781 L 1146.90625 392.675781 C 1134.511719 392.675781 1133.746094 392.65625 1132.464844 392.34375 C 1127.664062 391.195312 1124.007812 387.621094 1122.496094 382.621094 C 1121.898438 380.609375 1121.75 376.839844 1122.179688 374.710938 C 1123.34375 368.929688 1127.332031 364.859375 1132.949219 363.695312 C 1134.046875 363.460938 1136.007812 363.429688 1147.105469 363.429688 L 1159.984375 363.429688 L 1159.984375 355.617188 L 1147.820312 355.636719 C 1141.125 355.652344 1134.859375 355.71875 1133.894531 355.800781 Z M 1133.894531 355.800781 " fill-opacity="1" fill-rule="nonzero"/><path fill="#747474" d="M 1067.261719 378.550781 L 1067.261719 381.875 L 1089.695312 381.875 L 1089.695312 375.226562 L 1067.261719 375.226562 Z M 1067.261719 378.550781 " fill-opacity="1" fill-rule="nonzero"/><path fill="#fffefa" d="M 762.734375 347.679688 C 760.359375 348.527344 756.671875 353.714844 754.710938 358.980469 C 753.511719 362.136719 752.433594 367.253906 751.917969 372.042969 C 751.652344 374.515625 751.652344 383.191406 751.917969 385.667969 C 752.964844 395.4375 755.339844 402.132812 759.613281 407.367188 C 761.355469 409.511719 762.21875 410.09375 763.867188 410.226562 C 765.828125 410.375 767.289062 409.378906 767.835938 407.5 C 768.300781 405.855469 767.953125 404.660156 766.492188 402.964844 C 764.148438 400.238281 762.6875 397.414062 761.589844 393.542969 C 759.011719 384.402344 759.179688 371.195312 761.953125 362.820312 C 762.953125 359.828125 764.511719 357.035156 766.40625 354.84375 C 766.875 354.292969 767.40625 353.5625 767.585938 353.230469 C 768.585938 351.285156 767.738281 348.628906 765.828125 347.765625 C 765.046875 347.398438 763.601562 347.367188 762.734375 347.679688 Z M 762.734375 347.679688 " fill-opacity="1" fill-rule="nonzero"/><path fill="#fffefa" d="M 836.066406 347.679688 C 835.382812 347.914062 834.46875 348.761719 834.105469 349.476562 C 833.953125 349.773438 833.789062 350.507812 833.738281 351.121094 C 833.640625 352.515625 833.953125 353.230469 835.433594 355.007812 C 838.855469 359.082031 840.652344 364.046875 841.613281 372.042969 C 842.011719 375.363281 842.011719 382.328125 841.613281 385.667969 C 840.683594 393.578125 838.804688 398.695312 835.367188 402.78125 C 834.105469 404.292969 833.722656 405.089844 833.707031 406.203125 C 833.707031 408.582031 835.285156 410.257812 837.511719 410.257812 C 838.890625 410.257812 839.871094 409.726562 841.300781 408.214844 C 844.773438 404.542969 847.464844 398.8125 848.828125 392.164062 C 850.4375 384.222656 850.472656 373.933594 848.894531 365.84375 C 847.5625 359.0625 844.589844 352.75 840.984375 349.125 C 839.488281 347.613281 837.691406 347.082031 836.066406 347.679688 Z M 836.066406 347.679688 " fill-opacity="1" fill-rule="nonzero"/><path fill="#fffefa" d="M 777.257812 349.757812 C 775.714844 350.15625 774.449219 351.46875 774.019531 353.148438 C 773.835938 353.847656 773.800781 358.515625 773.800781 378.273438 L 773.800781 402.53125 L 778.074219 402.582031 L 782.359375 402.617188 L 782.394531 383.488281 L 782.441406 364.363281 L 800.855469 383.125 C 813.550781 396.070312 819.53125 402.050781 820.128906 402.417969 C 822.703125 403.960938 825.464844 403.230469 826.757812 400.636719 L 827.140625 399.875 L 827.191406 374.898438 L 827.226562 349.941406 L 818.75 349.941406 L 818.75 368.96875 C 818.75 379.433594 818.699219 387.992188 818.652344 387.992188 C 818.601562 387.992188 810.191406 379.585938 799.957031 369.300781 C 784.570312 353.863281 781.179688 350.539062 780.449219 350.191406 C 779.5 349.726562 778.121094 349.542969 777.257812 349.757812 Z M 777.257812 349.757812 " fill-opacity="1" fill-rule="nonzero"/><path fill="#fffefa" d="M 565.347656 376.445312 L 565.347656 402.617188 L 609.046875 402.617188 L 609.046875 393.476562 L 574.320312 393.476562 L 574.320312 350.273438 L 565.347656 350.273438 Z M 565.347656 376.445312 " fill-opacity="1" fill-rule="nonzero"/><path fill="#fffefa" d="M 636.035156 350.441406 C 626.84375 351.402344 619.382812 356.886719 616.011719 365.144531 C 614.53125 368.785156 613.949219 372.324219 614.082031 376.859375 C 614.214844 381.480469 615.097656 385.101562 616.992188 388.839844 C 618.417969 391.683594 619.382812 393.011719 621.675781 395.320312 C 625.398438 399.058594 629.503906 401.238281 634.65625 402.234375 C 636.050781 402.5 637.214844 402.53125 645.4375 402.53125 C 654.363281 402.53125 654.726562 402.515625 656.523438 402.152344 C 664.480469 400.539062 670.730469 395.703125 674.183594 388.457031 C 677.824219 380.832031 677.859375 371.078125 674.269531 363.667969 C 670.613281 356.105469 663.699219 351.4375 654.710938 350.457031 C 652.882812 350.257812 637.910156 350.238281 636.035156 350.441406 Z M 655.90625 359.945312 C 661.773438 361.539062 665.710938 365.527344 667.339844 371.507812 C 667.738281 372.988281 667.769531 373.386719 667.769531 376.363281 C 667.769531 379.335938 667.738281 379.734375 667.339844 381.214844 C 665.792969 386.929688 661.988281 391.015625 656.65625 392.695312 C 654.34375 393.410156 652.832031 393.511719 644.359375 393.445312 C 636.980469 393.375 636.464844 393.34375 635.152344 393.011719 C 632.460938 392.296875 629.785156 390.800781 627.90625 388.90625 C 622.921875 383.9375 621.558594 375.03125 624.765625 368.402344 C 625.746094 366.339844 626.679688 365.0625 628.289062 363.550781 C 630.433594 361.539062 633.542969 360.042969 636.5 359.59375 C 637.082031 359.511719 641.316406 359.460938 645.9375 359.480469 L 654.328125 359.511719 Z M 655.90625 359.945312 " fill-opacity="1" fill-rule="nonzero"/><path fill="#fffefa" d="M 706.585938 350.457031 C 700.6875 351.121094 695.769531 353.429688 691.78125 357.417969 C 686.832031 362.355469 684.40625 369.050781 684.703125 377.027344 C 684.984375 384.503906 687.496094 390.535156 692.363281 395.386719 C 695.988281 399.011719 699.972656 401.136719 704.960938 402.152344 L 706.835938 402.53125 L 740.902344 402.53125 L 740.949219 387.363281 L 740.984375 372.207031 L 708.582031 372.207031 L 708.582031 379.851562 L 731.84375 379.851562 L 731.84375 393.492188 L 719.515625 393.425781 C 707.367188 393.375 707.152344 393.375 705.757812 393.011719 C 702.734375 392.214844 699.34375 390.085938 697.582031 387.859375 C 693.394531 382.625 692.445312 374.648438 695.289062 368.585938 C 697.414062 364.03125 700.921875 361.15625 705.957031 359.792969 C 706.902344 359.546875 708.582031 359.511719 722.339844 359.460938 L 737.660156 359.394531 L 737.660156 350.273438 L 722.757812 350.289062 C 714.546875 350.304688 707.269531 350.371094 706.585938 350.457031 Z M 706.585938 350.457031 " fill-opacity="1" fill-rule="nonzero"/></svg>