<svg xmlns="http://www.w3.org/2000/svg" xmlns:xlink="http://www.w3.org/1999/xlink" width="2000" zoomAndPan="magnify" viewBox="0 0 1500 607.92" height="800" preserveAspectRatio="xMidYMid meet" version="1.0"><defs><g/><clipPath id="5f2e29fb89"><rect x="0" width="1241" y="0" height="172"/></clipPath><clipPath id="ad025b4dab"><rect x="0" width="710" y="0" height="146"/></clipPath><clipPath id="09faa6711c"><rect x="0" width="103" y="0" height="104"/></clipPath></defs><g transform="matrix(1, 0, 0, 1, 124, 127)"><g clip-path="url(#5f2e29fb89)"><g fill="#000000" fill-opacity="1"><g transform="translate(4.703914, 136.303895)"><g><path d="M 29.75 1.6875 C 23.113281 1.6875 17.007812 0.445312 11.4375 -2.03125 C 5.875 -4.507812 1.3125 -8.039062 -2.25 -12.625 L 10.390625 -27.796875 C 15.722656 -20.585938 21.804688 -16.984375 28.640625 -16.984375 C 37.898438 -16.984375 42.53125 -22.410156 42.53125 -33.265625 L 42.53125 -80 L 8 -80 L 8 -98.25 L 65.125 -98.25 L 65.125 -34.53125 C 65.125 -22.457031 62.128906 -13.398438 56.140625 -7.359375 C 50.148438 -1.328125 41.351562 1.6875 29.75 1.6875 Z M 29.75 1.6875 "/></g></g></g><g fill="#000000" fill-opacity="1"><g transform="translate(73.61901, 136.303895)"><g><path d="M 46.03125 1.125 C 38.082031 1.125 30.945312 -0.535156 24.625 -3.859375 C 18.3125 -7.179688 13.375 -11.789062 9.8125 -17.6875 C 6.257812 -23.582031 4.484375 -30.269531 4.484375 -37.75 C 4.484375 -45.238281 6.257812 -51.929688 9.8125 -57.828125 C 13.375 -63.722656 18.3125 -68.332031 24.625 -71.65625 C 30.945312 -74.976562 38.082031 -76.640625 46.03125 -76.640625 C 53.988281 -76.640625 61.101562 -74.976562 67.375 -71.65625 C 73.644531 -68.332031 78.554688 -63.722656 82.109375 -57.828125 C 85.660156 -51.929688 87.4375 -45.238281 87.4375 -37.75 C 87.4375 -30.269531 85.660156 -23.582031 82.109375 -17.6875 C 78.554688 -11.789062 73.644531 -7.179688 67.375 -3.859375 C 61.101562 -0.535156 53.988281 1.125 46.03125 1.125 Z M 46.03125 -16.84375 C 51.644531 -16.84375 56.253906 -18.738281 59.859375 -22.53125 C 63.460938 -26.320312 65.265625 -31.394531 65.265625 -37.75 C 65.265625 -44.113281 63.460938 -49.191406 59.859375 -52.984375 C 56.253906 -56.773438 51.644531 -58.671875 46.03125 -58.671875 C 40.414062 -58.671875 35.785156 -56.773438 32.140625 -52.984375 C 28.492188 -49.191406 26.671875 -44.113281 26.671875 -37.75 C 26.671875 -31.394531 28.492188 -26.320312 32.140625 -22.53125 C 35.785156 -18.738281 40.414062 -16.84375 46.03125 -16.84375 Z M 46.03125 -16.84375 "/></g></g></g><g fill="#000000" fill-opacity="1"><g transform="translate(158.534858, 136.303895)"><g><path d="M 35.515625 1.125 C 29.242188 1.125 23.113281 0.351562 17.125 -1.1875 C 11.132812 -2.738281 6.363281 -4.679688 2.8125 -7.015625 L 10.109375 -22.734375 C 13.472656 -20.585938 17.539062 -18.832031 22.3125 -17.46875 C 27.082031 -16.113281 31.765625 -15.4375 36.359375 -15.4375 C 45.617188 -15.4375 50.25 -17.726562 50.25 -22.3125 C 50.25 -24.46875 48.984375 -26.015625 46.453125 -26.953125 C 43.929688 -27.890625 40.050781 -28.679688 34.8125 -29.328125 C 28.632812 -30.265625 23.53125 -31.34375 19.5 -32.5625 C 15.476562 -33.78125 11.992188 -35.929688 9.046875 -39.015625 C 6.097656 -42.109375 4.625 -46.507812 4.625 -52.21875 C 4.625 -56.988281 6.003906 -61.21875 8.765625 -64.90625 C 11.523438 -68.601562 15.550781 -71.484375 20.84375 -73.546875 C 26.132812 -75.609375 32.378906 -76.640625 39.578125 -76.640625 C 44.910156 -76.640625 50.21875 -76.050781 55.5 -74.875 C 60.789062 -73.707031 65.171875 -72.097656 68.640625 -70.046875 L 61.34375 -54.453125 C 54.695312 -58.203125 47.441406 -60.078125 39.578125 -60.078125 C 34.898438 -60.078125 31.390625 -59.421875 29.046875 -58.109375 C 26.710938 -56.796875 25.546875 -55.113281 25.546875 -53.0625 C 25.546875 -50.71875 26.804688 -49.078125 29.328125 -48.140625 C 31.859375 -47.203125 35.882812 -46.3125 41.40625 -45.46875 C 47.582031 -44.445312 52.632812 -43.347656 56.5625 -42.171875 C 60.488281 -41.003906 63.898438 -38.875 66.796875 -35.78125 C 69.703125 -32.695312 71.15625 -28.394531 71.15625 -22.875 C 71.15625 -18.195312 69.75 -14.03125 66.9375 -10.375 C 64.132812 -6.726562 60.039062 -3.898438 54.65625 -1.890625 C 49.28125 0.117188 42.898438 1.125 35.515625 1.125 Z M 35.515625 1.125 "/></g></g></g><g fill="#000000" fill-opacity="1"><g transform="translate(226.04638, 136.303895)"><g><path d="M 56 -76.640625 C 65.363281 -76.640625 72.921875 -73.832031 78.671875 -68.21875 C 84.421875 -62.601562 87.296875 -54.273438 87.296875 -43.234375 L 87.296875 0 L 65.40625 0 L 65.40625 -39.859375 C 65.40625 -45.847656 64.09375 -50.316406 61.46875 -53.265625 C 58.851562 -56.210938 55.066406 -57.6875 50.109375 -57.6875 C 44.585938 -57.6875 40.1875 -55.976562 36.90625 -52.5625 C 33.632812 -49.144531 32 -44.066406 32 -37.328125 L 32 0 L 10.109375 0 L 10.109375 -104.140625 L 32 -104.140625 L 32 -67.65625 C 34.90625 -70.550781 38.414062 -72.769531 42.53125 -74.3125 C 46.644531 -75.863281 51.132812 -76.640625 56 -76.640625 Z M 56 -76.640625 "/></g></g></g><g fill="#000000" fill-opacity="1"><g transform="translate(316.015087, 136.303895)"><g><path d="M 101.0625 0 L 100.921875 -58.953125 L 72 -10.390625 L 61.765625 -10.390625 L 32.984375 -57.6875 L 32.984375 0 L 11.65625 0 L 11.65625 -98.25 L 30.453125 -98.25 L 67.234375 -37.1875 L 103.4375 -98.25 L 122.109375 -98.25 L 122.390625 0 Z M 101.0625 0 "/></g></g></g><g fill="#000000" fill-opacity="1"><g transform="translate(443.038138, 136.303895)"><g><path d="M 40.5625 -76.640625 C 52.257812 -76.640625 61.242188 -73.851562 67.515625 -68.28125 C 73.785156 -62.71875 76.921875 -54.320312 76.921875 -43.09375 L 76.921875 0 L 56.421875 0 L 56.421875 -9.40625 C 52.304688 -2.382812 44.632812 1.125 33.40625 1.125 C 27.601562 1.125 22.570312 0.144531 18.3125 -1.8125 C 14.0625 -3.78125 10.8125 -6.492188 8.5625 -9.953125 C 6.3125 -13.421875 5.1875 -17.351562 5.1875 -21.75 C 5.1875 -28.769531 7.828125 -34.289062 13.109375 -38.3125 C 18.398438 -42.34375 26.566406 -44.359375 37.609375 -44.359375 L 55.015625 -44.359375 C 55.015625 -49.128906 53.5625 -52.800781 50.65625 -55.375 C 47.757812 -57.945312 43.410156 -59.234375 37.609375 -59.234375 C 33.585938 -59.234375 29.632812 -58.597656 25.75 -57.328125 C 21.875 -56.066406 18.578125 -54.363281 15.859375 -52.21875 L 8 -67.515625 C 12.113281 -70.410156 17.046875 -72.65625 22.796875 -74.25 C 28.554688 -75.84375 34.476562 -76.640625 40.5625 -76.640625 Z M 38.875 -13.609375 C 42.625 -13.609375 45.945312 -14.472656 48.84375 -16.203125 C 51.75 -17.941406 53.804688 -20.492188 55.015625 -23.859375 L 55.015625 -31.578125 L 40 -31.578125 C 31.019531 -31.578125 26.53125 -28.628906 26.53125 -22.734375 C 26.53125 -19.929688 27.628906 -17.707031 29.828125 -16.0625 C 32.023438 -14.425781 35.039062 -13.609375 38.875 -13.609375 Z M 38.875 -13.609375 "/></g></g></g><g fill="#000000" fill-opacity="1"><g transform="translate(523.462508, 136.303895)"><g><path d="M 87.015625 -104.140625 L 87.015625 0 L 66.109375 0 L 66.109375 -8.703125 C 60.679688 -2.148438 52.820312 1.125 42.53125 1.125 C 35.414062 1.125 28.976562 -0.460938 23.21875 -3.640625 C 17.46875 -6.828125 12.953125 -11.367188 9.671875 -17.265625 C 6.398438 -23.160156 4.765625 -29.988281 4.765625 -37.75 C 4.765625 -45.519531 6.398438 -52.351562 9.671875 -58.25 C 12.953125 -64.144531 17.46875 -68.679688 23.21875 -71.859375 C 28.976562 -75.046875 35.414062 -76.640625 42.53125 -76.640625 C 52.164062 -76.640625 59.695312 -73.597656 65.125 -67.515625 L 65.125 -104.140625 Z M 46.3125 -16.84375 C 51.832031 -16.84375 56.414062 -18.738281 60.0625 -22.53125 C 63.71875 -26.320312 65.546875 -31.394531 65.546875 -37.75 C 65.546875 -44.113281 63.71875 -49.191406 60.0625 -52.984375 C 56.414062 -56.773438 51.832031 -58.671875 46.3125 -58.671875 C 40.695312 -58.671875 36.066406 -56.773438 32.421875 -52.984375 C 28.773438 -49.191406 26.953125 -44.113281 26.953125 -37.75 C 26.953125 -31.394531 28.773438 -26.320312 32.421875 -22.53125 C 36.066406 -18.738281 40.695312 -16.84375 46.3125 -16.84375 Z M 46.3125 -16.84375 "/></g></g></g><g fill="#000000" fill-opacity="1"><g transform="translate(613.571594, 136.303895)"><g><path d="M 40.5625 -76.640625 C 52.257812 -76.640625 61.242188 -73.851562 67.515625 -68.28125 C 73.785156 -62.71875 76.921875 -54.320312 76.921875 -43.09375 L 76.921875 0 L 56.421875 0 L 56.421875 -9.40625 C 52.304688 -2.382812 44.632812 1.125 33.40625 1.125 C 27.601562 1.125 22.570312 0.144531 18.3125 -1.8125 C 14.0625 -3.78125 10.8125 -6.492188 8.5625 -9.953125 C 6.3125 -13.421875 5.1875 -17.351562 5.1875 -21.75 C 5.1875 -28.769531 7.828125 -34.289062 13.109375 -38.3125 C 18.398438 -42.34375 26.566406 -44.359375 37.609375 -44.359375 L 55.015625 -44.359375 C 55.015625 -49.128906 53.5625 -52.800781 50.65625 -55.375 C 47.757812 -57.945312 43.410156 -59.234375 37.609375 -59.234375 C 33.585938 -59.234375 29.632812 -58.597656 25.75 -57.328125 C 21.875 -56.066406 18.578125 -54.363281 15.859375 -52.21875 L 8 -67.515625 C 12.113281 -70.410156 17.046875 -72.65625 22.796875 -74.25 C 28.554688 -75.84375 34.476562 -76.640625 40.5625 -76.640625 Z M 38.875 -13.609375 C 42.625 -13.609375 45.945312 -14.472656 48.84375 -16.203125 C 51.75 -17.941406 53.804688 -20.492188 55.015625 -23.859375 L 55.015625 -31.578125 L 40 -31.578125 C 31.019531 -31.578125 26.53125 -28.628906 26.53125 -22.734375 C 26.53125 -19.929688 27.628906 -17.707031 29.828125 -16.0625 C 32.023438 -14.425781 35.039062 -13.609375 38.875 -13.609375 Z M 38.875 -13.609375 "/></g></g></g><g fill="#000000" fill-opacity="1"><g transform="translate(693.153823, 136.303895)"><g><path d="M 42.53125 -29.609375 L 32 -19.234375 L 32 0 L 10.109375 0 L 10.109375 -104.140625 L 32 -104.140625 L 32 -45.203125 L 64 -75.515625 L 90.109375 -75.515625 L 58.671875 -43.515625 L 92.921875 0 L 66.390625 0 Z M 42.53125 -29.609375 "/></g></g></g><g fill="#000000" fill-opacity="1"><g transform="translate(775.543233, 136.303895)"><g><path d="M 46.03125 1.125 C 38.082031 1.125 30.945312 -0.535156 24.625 -3.859375 C 18.3125 -7.179688 13.375 -11.789062 9.8125 -17.6875 C 6.257812 -23.582031 4.484375 -30.269531 4.484375 -37.75 C 4.484375 -45.238281 6.257812 -51.929688 9.8125 -57.828125 C 13.375 -63.722656 18.3125 -68.332031 24.625 -71.65625 C 30.945312 -74.976562 38.082031 -76.640625 46.03125 -76.640625 C 53.988281 -76.640625 61.101562 -74.976562 67.375 -71.65625 C 73.644531 -68.332031 78.554688 -63.722656 82.109375 -57.828125 C 85.660156 -51.929688 87.4375 -45.238281 87.4375 -37.75 C 87.4375 -30.269531 85.660156 -23.582031 82.109375 -17.6875 C 78.554688 -11.789062 73.644531 -7.179688 67.375 -3.859375 C 61.101562 -0.535156 53.988281 1.125 46.03125 1.125 Z M 46.03125 -16.84375 C 51.644531 -16.84375 56.253906 -18.738281 59.859375 -22.53125 C 63.460938 -26.320312 65.265625 -31.394531 65.265625 -37.75 C 65.265625 -44.113281 63.460938 -49.191406 59.859375 -52.984375 C 56.253906 -56.773438 51.644531 -58.671875 46.03125 -58.671875 C 40.414062 -58.671875 35.785156 -56.773438 32.140625 -52.984375 C 28.492188 -49.191406 26.671875 -44.113281 26.671875 -37.75 C 26.671875 -31.394531 28.492188 -26.320312 32.140625 -22.53125 C 35.785156 -18.738281 40.414062 -16.84375 46.03125 -16.84375 Z M 46.03125 -16.84375 "/></g></g></g><g fill="#000000" fill-opacity="1"><g transform="translate(860.45913, 136.303895)"><g><path d="M 31.015625 -65.546875 C 33.640625 -69.191406 37.171875 -71.953125 41.609375 -73.828125 C 46.054688 -75.703125 51.179688 -76.640625 56.984375 -76.640625 L 56.984375 -56.421875 C 54.554688 -56.609375 52.921875 -56.703125 52.078125 -56.703125 C 45.804688 -56.703125 40.890625 -54.945312 37.328125 -51.4375 C 33.773438 -47.925781 32 -42.664062 32 -35.65625 L 32 0 L 10.109375 0 L 10.109375 -75.515625 L 31.015625 -75.515625 Z M 31.015625 -65.546875 "/></g></g></g><g fill="#e03131" fill-opacity="1"><g transform="translate(912.531351, 136.303895)"><g><path d="M 18.390625 1.125 C 14.546875 1.125 11.3125 -0.179688 8.6875 -2.796875 C 6.070312 -5.421875 4.765625 -8.695312 4.765625 -12.625 C 4.765625 -16.65625 6.070312 -19.910156 8.6875 -22.390625 C 11.3125 -24.867188 14.546875 -26.109375 18.390625 -26.109375 C 22.222656 -26.109375 25.445312 -24.867188 28.0625 -22.390625 C 30.6875 -19.910156 32 -16.65625 32 -12.625 C 32 -8.695312 30.6875 -5.421875 28.0625 -2.796875 C 25.445312 -0.179688 22.222656 1.125 18.390625 1.125 Z M 18.390625 1.125 "/></g></g></g><g fill="#e03131" fill-opacity="1"><g transform="translate(941.725318, 136.303895)"><g><path d="M 58.8125 -3.65625 C 56.65625 -2.0625 54.007812 -0.863281 50.875 -0.0625 C 47.738281 0.726562 44.441406 1.125 40.984375 1.125 C 32.003906 1.125 25.054688 -1.164062 20.140625 -5.75 C 15.222656 -10.332031 12.765625 -17.070312 12.765625 -25.96875 L 12.765625 -56.984375 L 1.125 -56.984375 L 1.125 -73.828125 L 12.765625 -73.828125 L 12.765625 -92.21875 L 34.671875 -92.21875 L 34.671875 -73.828125 L 53.484375 -73.828125 L 53.484375 -56.984375 L 34.671875 -56.984375 L 34.671875 -26.25 C 34.671875 -23.0625 35.488281 -20.601562 37.125 -18.875 C 38.757812 -17.144531 41.078125 -16.28125 44.078125 -16.28125 C 47.535156 -16.28125 50.484375 -17.21875 52.921875 -19.09375 Z M 58.8125 -3.65625 "/></g></g></g><g fill="#e03131" fill-opacity="1"><g transform="translate(993.376451, 136.303895)"><g><path d="M 84.078125 -37.46875 C 84.078125 -37.195312 83.9375 -35.234375 83.65625 -31.578125 L 26.53125 -31.578125 C 27.5625 -26.898438 29.992188 -23.203125 33.828125 -20.484375 C 37.660156 -17.773438 42.429688 -16.421875 48.140625 -16.421875 C 52.066406 -16.421875 55.550781 -17.003906 58.59375 -18.171875 C 61.632812 -19.347656 64.46875 -21.195312 67.09375 -23.71875 L 78.734375 -11.09375 C 71.628906 -2.945312 61.242188 1.125 47.578125 1.125 C 39.066406 1.125 31.535156 -0.535156 24.984375 -3.859375 C 18.429688 -7.179688 13.375 -11.789062 9.8125 -17.6875 C 6.257812 -23.582031 4.484375 -30.269531 4.484375 -37.75 C 4.484375 -45.144531 6.238281 -51.8125 9.75 -57.75 C 13.257812 -63.695312 18.078125 -68.332031 24.203125 -71.65625 C 30.335938 -74.976562 37.195312 -76.640625 44.78125 -76.640625 C 52.164062 -76.640625 58.851562 -75.046875 64.84375 -71.859375 C 70.832031 -68.679688 75.535156 -64.117188 78.953125 -58.171875 C 82.367188 -52.234375 84.078125 -45.332031 84.078125 -37.46875 Z M 44.921875 -60.078125 C 39.953125 -60.078125 35.785156 -58.671875 32.421875 -55.859375 C 29.054688 -53.054688 27 -49.222656 26.25 -44.359375 L 63.4375 -44.359375 C 62.6875 -49.128906 60.628906 -52.941406 57.265625 -55.796875 C 53.898438 -58.648438 49.785156 -60.078125 44.921875 -60.078125 Z M 44.921875 -60.078125 "/></g></g></g><g fill="#e03131" fill-opacity="1"><g transform="translate(1074.92372, 136.303895)"><g><path d="M 46.59375 1.125 C 38.550781 1.125 31.320312 -0.535156 24.90625 -3.859375 C 18.5 -7.179688 13.492188 -11.789062 9.890625 -17.6875 C 6.285156 -23.582031 4.484375 -30.269531 4.484375 -37.75 C 4.484375 -45.238281 6.285156 -51.929688 9.890625 -57.828125 C 13.492188 -63.722656 18.5 -68.332031 24.90625 -71.65625 C 31.320312 -74.976562 38.550781 -76.640625 46.59375 -76.640625 C 54.550781 -76.640625 61.5 -74.976562 67.4375 -71.65625 C 73.382812 -68.332031 77.710938 -63.582031 80.421875 -57.40625 L 63.4375 -48.28125 C 59.507812 -55.207031 53.847656 -58.671875 46.453125 -58.671875 C 40.742188 -58.671875 36.019531 -56.796875 32.28125 -53.046875 C 28.539062 -49.304688 26.671875 -44.207031 26.671875 -37.75 C 26.671875 -31.300781 28.539062 -26.203125 32.28125 -22.453125 C 36.019531 -18.710938 40.742188 -16.84375 46.453125 -16.84375 C 53.941406 -16.84375 59.601562 -20.304688 63.4375 -27.234375 L 80.421875 -17.96875 C 77.710938 -11.976562 73.382812 -7.296875 67.4375 -3.921875 C 61.5 -0.554688 54.550781 1.125 46.59375 1.125 Z M 46.59375 1.125 "/></g></g></g><g fill="#e03131" fill-opacity="1"><g transform="translate(1150.295265, 136.303895)"><g><path d="M 56 -76.640625 C 65.363281 -76.640625 72.921875 -73.832031 78.671875 -68.21875 C 84.421875 -62.601562 87.296875 -54.273438 87.296875 -43.234375 L 87.296875 0 L 65.40625 0 L 65.40625 -39.859375 C 65.40625 -45.847656 64.09375 -50.316406 61.46875 -53.265625 C 58.851562 -56.210938 55.066406 -57.6875 50.109375 -57.6875 C 44.585938 -57.6875 40.1875 -55.976562 36.90625 -52.5625 C 33.632812 -49.144531 32 -44.066406 32 -37.328125 L 32 0 L 10.109375 0 L 10.109375 -104.140625 L 32 -104.140625 L 32 -67.65625 C 34.90625 -70.550781 38.414062 -72.769531 42.53125 -74.3125 C 46.644531 -75.863281 51.132812 -76.640625 56 -76.640625 Z M 56 -76.640625 "/></g></g></g></g></g><path stroke-linecap="butt" transform="matrix(0.749901, 0.000000000000000674, -0.000000000000000674, 0.749901, 352.21949, 296.270727)" fill="none" stroke-linejoin="miter" d="M -0.000987003 1.498603 L 1075.150942 1.498603 " stroke="#000000" stroke-width="3" stroke-opacity="1" stroke-miterlimit="4"/><g transform="matrix(1, 0, 0, 1, 451, 284)"><g clip-path="url(#ad025b4dab)"><path fill="#000000" d="M 19.410156 53.527344 C 15.316406 53.964844 11.488281 56.550781 9.515625 60.214844 C 8.945312 61.28125 8.5 62.433594 8.21875 63.609375 C 8.015625 64.449219 8 66.253906 8 95.007812 L 8 125.519531 L 8.328125 126.683594 C 8.703125 128.066406 9.273438 129.351562 10.058594 130.578125 C 10.847656 131.804688 12.84375 133.734375 14.09375 134.484375 C 14.636719 134.8125 15.109375 135.054688 15.144531 135.03125 C 15.171875 134.996094 15.21875 133.527344 15.265625 131.769531 C 15.582031 118.082031 16.804688 109.300781 19.503906 101.269531 C 21.335938 95.84375 24.457031 90.09375 27.824219 85.933594 C 29 84.5 32.632812 80.730469 33.792969 79.757812 C 35.320312 78.472656 37.464844 76.75 37.886719 76.46875 C 38.128906 76.3125 38.335938 76.132812 38.335938 76.070312 C 38.335938 76.023438 38.554688 75.851562 38.820312 75.695312 C 39.085938 75.535156 40.164062 74.832031 41.207031 74.128906 C 42.972656 72.929688 43.652344 72.515625 44.933594 71.824219 C 45.203125 71.679688 45.503906 71.496094 45.601562 71.410156 C 45.878906 71.167969 51.28125 68.453125 53.230469 67.566406 C 56.234375 66.195312 61.902344 63.902344 64.429688 63.027344 C 64.699219 62.929688 65.242188 62.738281 65.640625 62.605469 C 66.042969 62.457031 66.78125 62.203125 67.277344 62.046875 C 67.773438 61.875 68.292969 61.695312 68.425781 61.644531 C 69.636719 61.207031 71.925781 60.46875 73.390625 60.054688 C 74.117188 59.851562 74.964844 59.605469 75.269531 59.523438 C 75.949219 59.304688 80.730469 58.078125 83.804688 57.328125 C 85.078125 57.011719 86.15625 56.71875 86.203125 56.671875 C 86.253906 56.621094 86.011719 56.367188 85.660156 56.101562 C 84.242188 55.007812 82.535156 54.195312 80.621094 53.722656 L 79.566406 53.46875 L 49.960938 53.445312 C 33.671875 53.433594 19.929688 53.46875 19.410156 53.527344 Z M 19.410156 53.527344 " fill-opacity="1" fill-rule="nonzero"/><path fill="#000000" d="M 87.074219 60.3125 C 76.382812 62.957031 65.957031 66.242188 58.363281 69.347656 C 46.605469 74.175781 37.789062 79.820312 31.75 86.371094 C 23.757812 95.042969 19.589844 105.488281 17.519531 122.0625 C 17.011719 126.101562 16.234375 135.296875 16.382812 135.554688 C 16.453125 135.699219 17.96875 136.109375 18.898438 136.257812 C 19.492188 136.339844 29 136.378906 49.898438 136.355469 L 80.050781 136.316406 L 81.203125 135.976562 C 85.476562 134.726562 88.664062 131.695312 90.101562 127.496094 C 90.816406 125.445312 90.78125 127.0625 90.746094 94.339844 L 90.707031 64.375 L 90.371094 63.160156 C 90.042969 61.996094 89.21875 60.042969 89 59.921875 C 88.941406 59.886719 88.082031 60.066406 87.074219 60.3125 Z M 87.074219 60.3125 " fill-opacity="1" fill-rule="nonzero"/><path fill="#747474" d="M 498.851562 71.453125 C 498.484375 71.636719 497.953125 72.035156 497.671875 72.332031 C 497.238281 72.78125 471.199219 116.136719 471.199219 116.402344 C 471.199219 116.453125 473.160156 116.46875 475.554688 116.453125 L 479.90625 116.402344 L 489.960938 99.253906 C 495.492188 89.832031 500.097656 82.121094 500.179688 82.136719 C 500.328125 82.1875 510.066406 98.523438 510.082031 98.738281 C 510.082031 98.820312 507.027344 98.871094 503.285156 98.871094 L 496.492188 98.871094 L 494.730469 101.929688 C 493.765625 103.605469 492.96875 105.019531 492.96875 105.070312 C 492.96875 105.136719 497.6875 105.203125 503.46875 105.21875 L 513.972656 105.269531 L 517.292969 110.882812 L 520.601562 116.484375 L 529.839844 116.484375 L 528.628906 114.441406 C 518.855469 97.988281 503.503906 72.582031 503.070312 72.167969 C 501.957031 71.105469 500.179688 70.804688 498.851562 71.453125 Z M 498.851562 71.453125 " fill-opacity="1" fill-rule="nonzero"/><path fill="#747474" d="M 424.007812 94.035156 L 424.007812 116.484375 L 431.484375 116.484375 L 431.484375 79.429688 L 444.082031 79.429688 C 457.722656 79.429688 457.988281 79.445312 459.785156 80.34375 C 461.613281 81.273438 462.859375 82.667969 463.574219 84.664062 C 464.089844 86.042969 464.121094 89.515625 463.65625 90.894531 C 462.792969 93.46875 461.128906 95.164062 458.570312 96.078125 C 457.492188 96.460938 457.472656 96.460938 447.488281 96.511719 L 437.46875 96.5625 L 437.46875 104.023438 L 446.824219 104.023438 C 451.957031 104.023438 456.792969 103.9375 457.574219 103.855469 C 460.53125 103.523438 462.691406 102.757812 465 101.246094 C 469.472656 98.324219 471.78125 93.121094 471.480469 86.675781 C 471.117188 78.648438 466.8125 73.546875 459.101562 72 C 458.007812 71.769531 455.414062 71.71875 440.925781 71.667969 L 424.007812 71.601562 Z M 424.007812 94.035156 " fill-opacity="1" fill-rule="nonzero"/><path fill="#747474" d="M 551.308594 71.800781 C 543.167969 72.484375 536.503906 77.234375 533.578125 84.496094 C 532.25 87.789062 531.652344 92.023438 532 95.730469 C 532.332031 99.320312 532.949219 101.578125 534.425781 104.621094 C 537.285156 110.519531 542.601562 114.605469 549.296875 116.101562 C 550.394531 116.335938 552.222656 116.386719 564.136719 116.433594 L 577.714844 116.5 L 577.679688 112.628906 L 577.628906 108.757812 L 564.171875 108.675781 C 549.132812 108.574219 550.078125 108.640625 547.371094 107.34375 C 542.949219 105.21875 540.242188 101.097656 539.660156 95.628906 C 539.328125 92.574219 539.808594 89.75 541.15625 86.988281 C 543.082031 83.019531 546.339844 80.527344 550.761719 79.660156 C 551.757812 79.480469 554.351562 79.429688 564.851562 79.429688 L 577.714844 79.429688 L 577.679688 75.558594 L 577.628906 71.703125 L 565.332031 71.6875 C 558.570312 71.667969 552.257812 71.734375 551.308594 71.800781 Z M 551.308594 71.800781 " fill-opacity="1" fill-rule="nonzero"/><path fill="#747474" d="M 584.527344 94.050781 L 584.527344 116.484375 L 592.167969 116.484375 L 592.167969 71.621094 L 584.527344 71.621094 Z M 584.527344 94.050781 " fill-opacity="1" fill-rule="nonzero"/><path fill="#747474" d="M 602.804688 94.050781 L 602.804688 116.484375 L 610.449219 116.484375 L 610.449219 79.429688 L 640.691406 79.429688 L 640.691406 71.621094 L 602.804688 71.621094 Z M 602.804688 94.050781 " fill-opacity="1" fill-rule="nonzero"/><path fill="#747474" d="M 646.621094 71.734375 C 646.554688 71.785156 646.507812 81.886719 646.507812 94.167969 L 646.507812 116.484375 L 654.316406 116.484375 L 654.316406 71.621094 L 650.527344 71.621094 C 648.433594 71.621094 646.671875 71.667969 646.621094 71.734375 Z M 646.621094 71.734375 " fill-opacity="1" fill-rule="nonzero"/><path fill="#747474" d="M 682.898438 71.800781 C 678.710938 72.101562 674.472656 73.628906 671.429688 75.921875 C 665.683594 80.261719 662.691406 87.488281 663.304688 95.5625 C 663.753906 101.628906 665.996094 106.597656 670.019531 110.484375 C 672.925781 113.292969 676.265625 115.089844 680.320312 116.035156 C 681.765625 116.367188 682.347656 116.386719 695.410156 116.433594 L 708.984375 116.5 L 708.984375 108.675781 L 695.90625 108.675781 C 683.511719 108.675781 682.746094 108.65625 681.46875 108.34375 C 676.664062 107.195312 673.011719 103.625 671.496094 98.621094 C 670.898438 96.609375 670.75 92.839844 671.183594 90.710938 C 672.34375 84.929688 676.332031 80.859375 681.949219 79.695312 C 683.046875 79.460938 685.007812 79.429688 696.105469 79.429688 L 708.984375 79.429688 L 708.984375 71.621094 L 696.820312 71.636719 C 690.125 71.652344 683.859375 71.71875 682.898438 71.800781 Z M 682.898438 71.800781 " fill-opacity="1" fill-rule="nonzero"/><path fill="#747474" d="M 616.265625 94.550781 L 616.265625 97.875 L 638.695312 97.875 L 638.695312 91.226562 L 616.265625 91.226562 Z M 616.265625 94.550781 " fill-opacity="1" fill-rule="nonzero"/><path fill="#000000" d="M 311.738281 63.605469 C 309.359375 64.453125 305.671875 69.632812 303.710938 74.894531 C 302.515625 78.046875 301.433594 83.160156 300.917969 87.9375 C 300.652344 90.414062 300.652344 99.078125 300.917969 101.550781 C 301.964844 111.308594 304.34375 118 308.613281 123.226562 C 310.355469 125.371094 311.222656 125.949219 312.867188 126.082031 C 314.828125 126.230469 316.289062 125.238281 316.835938 123.359375 C 317.304688 121.71875 316.953125 120.523438 315.492188 118.828125 C 313.148438 116.105469 311.6875 113.285156 310.589844 109.417969 C 308.015625 100.289062 308.179688 87.09375 310.957031 78.726562 C 311.953125 75.738281 313.515625 72.949219 315.410156 70.761719 C 315.875 70.210938 316.40625 69.480469 316.589844 69.148438 C 317.585938 67.207031 316.738281 64.550781 314.828125 63.6875 C 314.046875 63.324219 312.601562 63.289062 311.738281 63.605469 Z M 311.738281 63.605469 " fill-opacity="1" fill-rule="nonzero"/><path fill="#000000" d="M 385.066406 63.605469 C 384.386719 63.839844 383.472656 64.683594 383.105469 65.398438 C 382.957031 65.695312 382.789062 66.425781 382.738281 67.042969 C 382.640625 68.4375 382.957031 69.148438 384.433594 70.925781 C 387.859375 74.992188 389.652344 79.957031 390.617188 87.9375 C 391.015625 91.257812 391.015625 98.214844 390.617188 101.550781 C 389.683594 109.453125 387.808594 114.5625 384.367188 118.648438 C 383.105469 120.15625 382.722656 120.953125 382.707031 122.066406 C 382.707031 124.441406 384.285156 126.117188 386.511719 126.117188 C 387.890625 126.117188 388.871094 125.585938 390.300781 124.074219 C 393.773438 120.40625 396.464844 114.679688 397.828125 108.039062 C 399.441406 100.105469 399.472656 89.832031 397.894531 81.75 C 396.566406 74.976562 393.589844 68.667969 389.984375 65.050781 C 388.488281 63.539062 386.695312 63.007812 385.066406 63.605469 Z M 385.066406 63.605469 " fill-opacity="1" fill-rule="nonzero"/><path fill="#000000" d="M 326.257812 65.679688 C 324.714844 66.078125 323.453125 67.390625 323.019531 69.066406 C 322.835938 69.765625 322.804688 74.429688 322.804688 94.164062 L 322.804688 118.398438 L 327.074219 118.449219 L 331.359375 118.480469 L 331.394531 99.375 L 331.445312 80.269531 L 349.855469 99.011719 C 362.550781 111.941406 368.53125 117.917969 369.128906 118.28125 C 371.707031 119.824219 374.464844 119.09375 375.761719 116.503906 L 376.144531 115.742188 L 376.191406 90.792969 L 376.226562 65.863281 L 367.75 65.863281 L 367.75 84.867188 C 367.75 95.324219 367.703125 103.875 367.652344 103.875 C 367.601562 103.875 359.195312 95.476562 348.957031 85.199219 C 333.570312 69.78125 330.179688 66.460938 329.449219 66.113281 C 328.503906 65.648438 327.125 65.464844 326.257812 65.679688 Z M 326.257812 65.679688 " fill-opacity="1" fill-rule="nonzero"/><path fill="#000000" d="M 114.347656 92.339844 L 114.347656 118.480469 L 158.046875 118.480469 L 158.046875 109.351562 L 123.320312 109.351562 L 123.320312 66.195312 L 114.347656 66.195312 Z M 114.347656 92.339844 " fill-opacity="1" fill-rule="nonzero"/><path fill="#000000" d="M 185.035156 66.359375 C 175.84375 67.324219 168.382812 72.800781 165.011719 81.050781 C 163.53125 84.6875 162.949219 88.222656 163.082031 92.753906 C 163.214844 97.367188 164.097656 100.984375 165.992188 104.71875 C 167.421875 107.558594 168.382812 108.886719 170.675781 111.195312 C 174.398438 114.929688 178.503906 117.101562 183.65625 118.097656 C 185.050781 118.363281 186.214844 118.398438 194.4375 118.398438 C 203.363281 118.398438 203.726562 118.382812 205.523438 118.015625 C 213.480469 116.40625 219.730469 111.574219 223.1875 104.339844 C 226.824219 96.71875 226.859375 86.976562 223.269531 79.574219 C 219.613281 72.019531 212.699219 67.355469 203.710938 66.378906 C 201.882812 66.179688 186.910156 66.160156 185.035156 66.359375 Z M 204.90625 75.855469 C 210.773438 77.449219 214.710938 81.433594 216.339844 87.410156 C 216.738281 88.886719 216.773438 89.285156 216.773438 92.253906 C 216.773438 95.226562 216.738281 95.625 216.339844 97.101562 C 214.792969 102.8125 210.988281 106.894531 205.65625 108.570312 C 203.347656 109.285156 201.832031 109.386719 193.359375 109.320312 C 185.980469 109.253906 185.464844 109.21875 184.152344 108.886719 C 181.460938 108.171875 178.785156 106.679688 176.910156 104.785156 C 171.921875 99.824219 170.5625 90.925781 173.769531 84.304688 C 174.75 82.246094 175.679688 80.96875 177.289062 79.457031 C 179.433594 77.449219 182.542969 75.957031 185.5 75.507812 C 186.082031 75.425781 190.316406 75.375 194.9375 75.390625 L 203.328125 75.425781 Z M 204.90625 75.855469 " fill-opacity="1" fill-rule="nonzero"/><path fill="#000000" d="M 255.589844 66.378906 C 249.691406 67.042969 244.769531 69.347656 240.78125 73.332031 C 235.832031 78.261719 233.40625 84.953125 233.703125 92.917969 C 233.988281 100.386719 236.496094 106.414062 241.363281 111.261719 C 244.988281 114.878906 248.976562 117.003906 253.960938 118.015625 L 255.839844 118.398438 L 289.902344 118.398438 L 289.953125 103.242188 L 289.984375 88.105469 L 257.582031 88.105469 L 257.582031 95.742188 L 280.847656 95.742188 L 280.847656 109.367188 L 268.515625 109.300781 C 256.371094 109.253906 256.152344 109.253906 254.757812 108.886719 C 251.734375 108.089844 248.34375 105.964844 246.582031 103.742188 C 242.394531 98.511719 241.449219 90.546875 244.289062 84.488281 C 246.417969 79.9375 249.921875 77.066406 254.957031 75.707031 C 255.90625 75.457031 257.582031 75.425781 271.339844 75.375 L 286.660156 75.308594 L 286.660156 66.195312 L 271.757812 66.210938 C 263.546875 66.226562 256.269531 66.292969 255.589844 66.378906 Z M 255.589844 66.378906 " fill-opacity="1" fill-rule="nonzero"/></g></g><g transform="matrix(1, 0, 0, 1, 336, 320)"><g clip-path="url(#09faa6711c)"><g fill="#1e1e1e" fill-opacity="1"><g transform="translate(0.577872, 81.954594)"><g><path d="M 31.5 -45 C 35.832031 -45 39.707031 -44.054688 43.125 -42.171875 C 46.539062 -40.285156 49.222656 -37.617188 51.171875 -34.171875 C 53.117188 -30.722656 54.09375 -26.75 54.09375 -22.25 C 54.09375 -17.75 53.117188 -13.757812 51.171875 -10.28125 C 49.222656 -6.8125 46.539062 -4.132812 43.125 -2.25 C 39.707031 -0.363281 35.832031 0.578125 31.5 0.578125 C 28.445312 0.578125 25.65625 0.0507812 23.125 -1 C 20.59375 -2.050781 18.46875 -3.632812 16.75 -5.75 L 16.75 0 L 6.828125 0 L 6.828125 -61.84375 L 17.25 -61.84375 L 17.25 -39.09375 C 19.03125 -41.03125 21.128906 -42.5 23.546875 -43.5 C 25.960938 -44.5 28.613281 -45 31.5 -45 Z M 30.34375 -8.328125 C 34.175781 -8.328125 37.328125 -9.601562 39.796875 -12.15625 C 42.265625 -14.71875 43.5 -18.082031 43.5 -22.25 C 43.5 -26.414062 42.265625 -29.773438 39.796875 -32.328125 C 37.328125 -34.890625 34.175781 -36.171875 30.34375 -36.171875 C 27.84375 -36.171875 25.585938 -35.597656 23.578125 -34.453125 C 21.578125 -33.316406 19.992188 -31.691406 18.828125 -29.578125 C 17.660156 -27.472656 17.078125 -25.03125 17.078125 -22.25 C 17.078125 -19.46875 17.660156 -17.019531 18.828125 -14.90625 C 19.992188 -12.800781 21.578125 -11.175781 23.578125 -10.03125 C 25.585938 -8.894531 27.84375 -8.328125 30.34375 -8.328125 Z M 30.34375 -8.328125 "/></g></g></g><g fill="#1e1e1e" fill-opacity="1"><g transform="translate(52.328616, 81.954594)"><g><path d="M 48.5 -44.5 L 27.671875 3.578125 C 25.722656 8.410156 23.359375 11.8125 20.578125 13.78125 C 17.804688 15.757812 14.445312 16.75 10.5 16.75 C 8.28125 16.75 6.085938 16.382812 3.921875 15.65625 C 1.753906 14.9375 -0.0234375 13.941406 -1.421875 12.671875 L 2.75 5 C 3.75 5.945312 4.925781 6.695312 6.28125 7.25 C 7.644531 7.800781 9.023438 8.078125 10.421875 8.078125 C 12.253906 8.078125 13.765625 7.601562 14.953125 6.65625 C 16.148438 5.71875 17.25 4.140625 18.25 1.921875 L 19 0.171875 L -0.421875 -44.5 L 10.421875 -44.5 L 24.421875 -11.578125 L 38.5 -44.5 Z M 48.5 -44.5 "/></g></g></g></g></g></svg>