<svg xmlns="http://www.w3.org/2000/svg" xmlns:xlink="http://www.w3.org/1999/xlink" width="2000" zoomAndPan="magnify" viewBox="0 0 1500 1499.999933" height="2000" preserveAspectRatio="xMidYMid meet" version="1.0"><defs><g/><clipPath id="4367374234"><rect x="0" width="1478" y="0" height="1090"/></clipPath></defs><g transform="matrix(1, 0, 0, 1, 12, 205)"><g clip-path="url(#4367374234)"><g fill="#000000" fill-opacity="1"><g transform="translate(21.944078, 862.870302)"><g><path d="M 188.859375 10.6875 C 146.691406 10.6875 107.9375 2.820312 72.59375 -12.90625 C 37.257812 -28.644531 8.308594 -51.066406 -14.25 -80.171875 L 65.921875 -176.375 C 99.773438 -130.644531 138.375 -107.78125 181.71875 -107.78125 C 240.519531 -107.78125 269.921875 -142.226562 269.921875 -211.125 L 269.921875 -507.765625 L 50.78125 -507.765625 L 50.78125 -623.5625 L 413.34375 -623.5625 L 413.34375 -219.140625 C 413.34375 -142.523438 394.335938 -85.066406 356.328125 -46.765625 C 318.316406 -8.460938 262.492188 10.6875 188.859375 10.6875 Z M 188.859375 10.6875 "/></g></g></g><g fill="#000000" fill-opacity="1"><g transform="translate(459.329305, 862.870302)"><g><path d="M 641.375 0 L 640.484375 -374.140625 L 456.984375 -65.921875 L 391.953125 -65.921875 L 209.34375 -366.125 L 209.34375 0 L 73.9375 0 L 73.9375 -623.5625 L 193.3125 -623.5625 L 426.703125 -236.0625 L 656.515625 -623.5625 L 774.984375 -623.5625 L 776.765625 0 Z M 641.375 0 "/></g></g></g><g fill="#e03131" fill-opacity="1"><g transform="translate(1265.611977, 862.870302)"><g><path d="M 116.703125 7.125 C 92.347656 7.125 71.851562 -1.1875 55.21875 -17.8125 C 38.59375 -34.445312 30.28125 -55.234375 30.28125 -80.171875 C 30.28125 -105.710938 38.59375 -126.347656 55.21875 -142.078125 C 71.851562 -157.816406 92.347656 -165.6875 116.703125 -165.6875 C 141.046875 -165.6875 161.53125 -157.816406 178.15625 -142.078125 C 194.789062 -126.347656 203.109375 -105.710938 203.109375 -80.171875 C 203.109375 -55.234375 194.789062 -34.445312 178.15625 -17.8125 C 161.53125 -1.1875 141.046875 7.125 116.703125 7.125 Z M 116.703125 7.125 "/></g></g></g></g></g></svg>