<svg xmlns="http://www.w3.org/2000/svg" xmlns:xlink="http://www.w3.org/1999/xlink" width="2000" zoomAndPan="magnify" viewBox="0 0 1500 1499.999933" height="2000" preserveAspectRatio="xMidYMid meet" version="1.0"><defs><g/></defs><g fill="#fffefa" fill-opacity="1"><g transform="translate(33.97566, 1071.810708)"><g><path d="M 188.859375 10.6875 C 146.691406 10.6875 107.9375 2.816406 72.59375 -12.921875 C 37.257812 -28.660156 8.308594 -51.078125 -14.25 -80.171875 L 65.921875 -176.390625 C 99.773438 -130.660156 138.378906 -107.796875 181.734375 -107.796875 C 240.535156 -107.796875 269.9375 -142.242188 269.9375 -211.140625 L 269.9375 -507.796875 L 50.78125 -507.796875 L 50.78125 -623.59375 L 413.359375 -623.59375 L 413.359375 -219.15625 C 413.359375 -142.539062 394.351562 -85.078125 356.34375 -46.765625 C 318.332031 -8.460938 262.503906 10.6875 188.859375 10.6875 Z M 188.859375 10.6875 "/></g></g></g><g fill="#fffefa" fill-opacity="1"><g transform="translate(471.385935, 1071.810708)"><g><path d="M 641.421875 0 L 640.53125 -374.15625 L 457.015625 -65.921875 L 391.984375 -65.921875 L 209.359375 -366.140625 L 209.359375 0 L 73.9375 0 L 73.9375 -623.59375 L 193.3125 -623.59375 L 426.71875 -236.078125 L 656.5625 -623.59375 L 775.046875 -623.59375 L 776.828125 0 Z M 641.421875 0 "/></g></g></g><g fill="#e03131" fill-opacity="1"><g transform="translate(1277.616178, 1071.810708)"><g><path d="M 116.703125 7.125 C 92.347656 7.125 71.859375 -1.1875 55.234375 -17.8125 C 38.609375 -34.445312 30.296875 -55.234375 30.296875 -80.171875 C 30.296875 -105.710938 38.609375 -126.351562 55.234375 -142.09375 C 71.859375 -157.832031 92.347656 -165.703125 116.703125 -165.703125 C 141.054688 -165.703125 161.546875 -157.832031 178.171875 -142.09375 C 194.796875 -126.351562 203.109375 -105.710938 203.109375 -80.171875 C 203.109375 -55.234375 194.796875 -34.445312 178.171875 -17.8125 C 161.546875 -1.1875 141.054688 7.125 116.703125 7.125 Z M 116.703125 7.125 "/></g></g></g></svg>